<?xml version="1.0" encoding="UTF-8" standalone="no"?>
<svg
   width="878"
   height="102"
   viewBox="0 0 878 102"
   fill="none"
   version="1.1"
   id="svg52"
   sodipodi:docname="made-with-passion-by-y.svg"
   xml:space="preserve"
   inkscape:version="1.2.2 (b0a84865, 2022-12-01)"
   xmlns:inkscape="http://www.inkscape.org/namespaces/inkscape"
   xmlns:sodipodi="http://sodipodi.sourceforge.net/DTD/sodipodi-0.dtd"
   xmlns="http://www.w3.org/2000/svg"
   xmlns:svg="http://www.w3.org/2000/svg"><defs
     id="defs56"><rect
       x="166.0748"
       y="38.115528"
       width="588.97566"
       height="171.51988"
       id="rect25060" /></defs><sodipodi:namedview
     id="namedview54"
     pagecolor="#ffffff"
     bordercolor="#000000"
     borderopacity="0.25"
     inkscape:showpageshadow="2"
     inkscape:pageopacity="0.0"
     inkscape:pagecheckerboard="0"
     inkscape:deskcolor="#d1d1d1"
     showgrid="false"
     inkscape:zoom="3.5226062"
     inkscape:cx="863.28129"
     inkscape:cy="45.846738"
     inkscape:window-width="1440"
     inkscape:window-height="787"
     inkscape:window-x="0"
     inkscape:window-y="25"
     inkscape:window-maximized="0"
     inkscape:current-layer="svg52" /><path
     d="M722.268 101.056L730.159 79.611L730.272 85.9539L712.452 42.1582H719.512L733.482 77.3835H731.065L744.166 42.1582H751L728.8 101.056H722.268Z"
     fill="white"
     id="path18" /><path
     d="M692.341 84.0661C688.515 84.0661 685.294 83.1222 682.676 81.2345C680.058 79.3215 678.07 76.7416 676.711 73.4947C675.377 70.2226 674.71 66.5604 674.71 62.508C674.71 58.4053 675.377 54.7305 676.711 51.4836C678.07 48.2367 680.058 45.682 682.676 43.8194C685.319 41.9568 688.553 41.0255 692.379 41.0255C696.155 41.0255 699.401 41.9694 702.12 43.8571C704.863 45.7197 706.965 48.2745 708.425 51.5214C709.885 54.7683 710.615 58.4305 710.615 62.508C710.615 66.5856 709.885 70.2478 708.425 73.4947C706.965 76.7416 704.863 79.3215 702.12 81.2345C699.401 83.1222 696.142 84.0661 692.341 84.0661ZM673.577 82.9334V28.5664H680.335V52.9183H679.58V82.9334H673.577ZM691.511 77.912C694.204 77.912 696.431 77.2324 698.193 75.8733C699.955 74.5141 701.277 72.6767 702.158 70.3611C703.039 68.0203 703.479 65.4026 703.479 62.508C703.479 59.6387 703.039 57.0462 702.158 54.7305C701.302 52.4149 699.968 50.5775 698.156 49.2183C696.369 47.8592 694.091 47.1796 691.322 47.1796C688.679 47.1796 686.489 47.834 684.753 49.1428C683.016 50.4265 681.72 52.2261 680.864 54.5418C680.008 56.8322 679.58 59.4877 679.58 62.508C679.58 65.4781 679.995 68.1335 680.826 70.4743C681.682 72.79 682.991 74.6148 684.753 75.9488C686.514 77.2576 688.767 77.912 691.511 77.912Z"
     fill="white"
     id="path20" /><path
     d="M641.887 82.934V62.5086C641.887 60.5705 641.71 58.7079 641.358 56.9209C641.031 55.1338 640.439 53.5355 639.584 52.126C638.753 50.6913 637.62 49.5587 636.186 48.7281C634.776 47.8974 632.989 47.4821 630.824 47.4821C629.138 47.4821 627.603 47.7716 626.218 48.3505C624.859 48.9042 623.689 49.76 622.707 50.9178C621.726 52.0756 620.958 53.5355 620.404 55.2974C619.876 57.0341 619.611 59.0855 619.611 61.4514L615.194 60.0923C615.194 56.1406 615.899 52.7552 617.308 49.9362C618.743 47.092 620.744 44.9148 623.311 43.4046C625.904 41.8692 628.949 41.1016 632.448 41.1016C635.091 41.1016 637.344 41.5169 639.206 42.3475C641.069 43.1781 642.617 44.2856 643.85 45.6699C645.083 47.0291 646.052 48.5644 646.757 50.276C647.462 51.9624 647.953 53.6865 648.229 55.4484C648.532 57.1851 648.683 58.8338 648.683 60.3943V82.934H641.887ZM612.815 82.934V42.1587H618.856V53.0699H619.611V82.934H612.815Z"
     fill="white"
     id="path22" /><path
     d="M584.87 84.066C580.818 84.066 577.319 83.1472 574.374 81.3098C571.455 79.4724 569.202 76.9303 567.616 73.6834C566.031 70.4364 565.238 66.7113 565.238 62.5079C565.238 58.229 566.043 54.4787 567.654 51.257C569.265 48.0352 571.543 45.5308 574.488 43.7437C577.433 41.9315 580.893 41.0254 584.87 41.0254C588.948 41.0254 592.459 41.9441 595.404 43.7815C598.349 45.5937 600.602 48.1233 602.162 51.3702C603.748 54.592 604.541 58.3045 604.541 62.5079C604.541 66.7616 603.748 70.5119 602.162 73.7589C600.576 76.9806 598.311 79.5102 595.366 81.3476C592.421 83.1598 588.923 84.066 584.87 84.066ZM584.87 77.6854C589.099 77.6854 592.245 76.2759 594.309 73.4568C596.373 70.6378 597.405 66.9882 597.405 62.5079C597.405 57.9018 596.36 54.2396 594.271 51.5212C592.182 48.7777 589.049 47.406 584.87 47.406C582.026 47.406 579.685 48.0478 577.848 49.3315C576.011 50.6151 574.639 52.3896 573.733 54.6549C572.827 56.9202 572.373 59.5379 572.373 62.5079C572.373 67.0888 573.431 70.7637 575.545 73.5323C577.659 76.301 580.768 77.6854 584.87 77.6854Z"
     fill="white"
     id="path24" /><path
     d="M549.455 34.9469V28H556.175V34.9469H549.455ZM549.455 82.9333V42.1581H556.175V82.9333H549.455Z"
     fill="white"
     id="path26" /><path
     d="M524.062 84.0282C519.205 84.0282 515.215 82.9711 512.094 80.8568C508.998 78.7173 507.098 75.7347 506.393 71.9089L513.264 70.814C513.818 73.0289 515.089 74.7908 517.078 76.0997C519.066 77.3833 521.533 78.0252 524.478 78.0252C527.272 78.0252 529.461 77.4463 531.047 76.2884C532.633 75.1306 533.426 73.5575 533.426 71.5691C533.426 70.4113 533.161 69.48 532.633 68.7752C532.104 68.0453 531.009 67.3657 529.348 66.7365C527.712 66.1072 525.233 65.3521 521.91 64.4712C518.311 63.5147 515.479 62.5205 513.415 61.4885C511.352 60.4566 509.879 59.261 508.998 57.9018C508.117 56.5426 507.677 54.894 507.677 52.9559C507.677 50.5648 508.331 48.4757 509.64 46.6886C510.949 44.8764 512.774 43.4795 515.114 42.4978C517.48 41.5162 520.224 41.0254 523.345 41.0254C526.441 41.0254 529.21 41.5162 531.651 42.4978C534.093 43.4795 536.056 44.8764 537.541 46.6886C539.051 48.4757 539.945 50.5648 540.221 52.9559L533.35 54.2018C533.023 52.0121 531.966 50.2879 530.179 49.0294C528.417 47.7709 526.139 47.1039 523.345 47.0284C520.702 46.9277 518.55 47.3934 516.889 48.4253C515.253 49.4573 514.435 50.8542 514.435 52.6161C514.435 53.5978 514.737 54.441 515.341 55.1457C515.97 55.8505 517.115 56.5175 518.777 57.1467C520.463 57.776 522.905 58.4933 526.101 59.2987C529.7 60.2049 532.532 61.1991 534.596 62.2814C536.685 63.3385 538.17 64.597 539.051 66.0569C539.932 67.4916 540.372 69.266 540.372 71.3803C540.372 75.3068 538.925 78.4027 536.031 80.668C533.136 82.9081 529.147 84.0282 524.062 84.0282Z"
     fill="white"
     id="path28" /><path
     d="M484.022 84.0282C479.164 84.0282 475.175 82.9711 472.054 80.8568C468.958 78.7173 467.057 75.7347 466.353 71.9089L473.224 70.814C473.778 73.0289 475.049 74.7908 477.037 76.0997C479.026 77.3833 481.492 78.0252 484.437 78.0252C487.231 78.0252 489.421 77.4463 491.006 76.2884C492.592 75.1306 493.385 73.5575 493.385 71.5691C493.385 70.4113 493.121 69.48 492.592 68.7752C492.064 68.0453 490.969 67.3657 489.308 66.7365C487.671 66.1072 485.192 65.3521 481.87 64.4712C478.27 63.5147 475.439 62.5205 473.375 61.4885C471.311 60.4566 469.839 59.261 468.958 57.9018C468.077 56.5426 467.636 54.894 467.636 52.9559C467.636 50.5648 468.291 48.4757 469.599 46.6886C470.908 44.8764 472.733 43.4795 475.074 42.4978C477.44 41.5162 480.183 41.0254 483.304 41.0254C486.4 41.0254 489.169 41.5162 491.611 42.4978C494.052 43.4795 496.015 44.8764 497.5 46.6886C499.011 48.4757 499.904 50.5648 500.181 52.9559L493.31 54.2018C492.982 52.0121 491.925 50.2879 490.138 49.0294C488.376 47.7709 486.098 47.1039 483.304 47.0284C480.662 46.9277 478.51 47.3934 476.848 48.4253C475.212 49.4573 474.394 50.8542 474.394 52.6161C474.394 53.5978 474.696 54.441 475.3 55.1457C475.93 55.8505 477.075 56.5175 478.736 57.1467C480.423 57.776 482.864 58.4933 486.061 59.2987C489.66 60.2049 492.491 61.1991 494.555 62.2814C496.645 63.3385 498.13 64.597 499.011 66.0569C499.891 67.4916 500.332 69.266 500.332 71.3803C500.332 75.3068 498.885 78.4027 495.99 80.668C493.096 82.9081 489.106 84.0282 484.022 84.0282Z"
     fill="white"
     id="path30" /><path
     d="M437.734 84.066C434.688 84.066 432.134 83.5122 430.07 82.4047C428.031 81.2721 426.483 79.7871 425.426 77.9497C424.394 76.1123 423.878 74.0987 423.878 71.9089C423.878 69.7694 424.281 67.9195 425.086 66.3589C425.917 64.7732 427.075 63.4644 428.56 62.4324C430.045 61.3753 431.819 60.5447 433.883 59.9406C435.821 59.412 437.986 58.959 440.377 58.5814C442.793 58.1787 445.235 57.8137 447.701 57.4865C450.168 57.1593 452.471 56.8447 454.61 56.5426L452.194 57.9396C452.27 54.3151 451.54 51.6345 450.004 49.8978C448.494 48.1611 445.876 47.2927 442.151 47.2927C439.685 47.2927 437.52 47.859 435.657 48.9917C433.82 50.0991 432.524 51.9114 431.769 54.4284L425.388 52.5029C426.37 48.9287 428.27 46.1223 431.089 44.0835C433.908 42.0448 437.621 41.0254 442.227 41.0254C445.927 41.0254 449.098 41.6924 451.741 43.0264C454.409 44.3352 456.322 46.3237 457.48 48.9917C458.059 50.2502 458.424 51.6219 458.575 53.107C458.726 54.5668 458.801 56.1022 458.801 57.713V82.9333H452.836V73.1548L454.233 74.0609C452.697 77.3582 450.545 79.85 447.777 81.5364C445.033 83.2228 441.686 84.066 437.734 84.066ZM438.753 78.4405C441.17 78.4405 443.259 78.0126 445.021 77.1568C446.808 76.2759 448.242 75.1306 449.325 73.7211C450.407 72.2864 451.112 70.7259 451.439 69.0395C451.817 67.781 452.018 66.3841 452.043 64.8487C452.093 63.2882 452.119 62.0926 452.119 61.262L454.459 62.2814C452.27 62.5834 450.118 62.8729 448.003 63.1497C445.889 63.4266 443.888 63.7287 442 64.0559C440.113 64.3579 438.414 64.7229 436.903 65.1508C435.796 65.5031 434.751 65.9562 433.77 66.5099C432.813 67.0637 432.033 67.781 431.429 68.662C430.85 69.5177 430.561 70.5875 430.561 71.8711C430.561 72.9786 430.837 74.0357 431.391 75.0425C431.97 76.0493 432.851 76.8674 434.034 77.4966C435.242 78.1259 436.815 78.4405 438.753 78.4405Z"
     fill="white"
     id="path32" /><path
     d="M399.594 84.066C395.768 84.066 392.546 83.1221 389.929 81.2343C387.311 79.3214 385.322 76.7415 383.963 73.4946C382.629 70.2225 381.962 66.5603 381.962 62.5079C381.962 58.4052 382.629 54.7304 383.963 51.4835C385.322 48.2366 387.311 45.6818 389.929 43.8193C392.571 41.9567 395.806 41.0254 399.631 41.0254C403.407 41.0254 406.654 41.9693 409.372 43.857C412.116 45.7196 414.217 48.2743 415.677 51.5212C417.137 54.7682 417.867 58.4304 417.867 62.5079C417.867 66.5854 417.137 70.2477 415.677 73.4946C414.217 76.7415 412.116 79.3214 409.372 81.2343C406.654 83.1221 403.394 84.066 399.594 84.066ZM380.83 101.056V42.158H386.833V72.1732H387.588V101.056H380.83ZM398.763 77.9119C401.456 77.9119 403.684 77.2323 405.446 75.8731C407.208 74.514 408.529 72.6766 409.41 70.3609C410.291 68.0201 410.731 65.4025 410.731 62.5079C410.731 59.6385 410.291 57.046 409.41 54.7304C408.554 52.4148 407.22 50.5774 405.408 49.2182C403.621 47.859 401.343 47.1794 398.574 47.1794C395.932 47.1794 393.742 47.8339 392.005 49.1427C390.268 50.4264 388.972 52.226 388.116 54.5416C387.26 56.8321 386.833 59.4875 386.833 62.5079C386.833 65.478 387.248 68.1334 388.079 70.4742C388.934 72.7898 390.243 74.6146 392.005 75.9487C393.767 77.2575 396.02 77.9119 398.763 77.9119Z"
     fill="white"
     id="path34" /><path
     d="M349.139 82.9334V62.508C349.139 60.57 348.963 58.7074 348.611 56.9203C348.283 55.1333 347.692 53.535 346.836 52.1255C346.005 50.6908 344.873 49.5581 343.438 48.7275C342.029 47.8969 340.242 47.4816 338.077 47.4816C336.391 47.4816 334.855 47.7711 333.471 48.35C332.112 48.9037 330.941 49.7595 329.96 50.9173C328.978 52.0751 328.21 53.535 327.657 55.2969C327.128 57.0336 326.864 59.0849 326.864 61.4509L322.446 60.0917C322.446 56.1401 323.151 52.7547 324.561 49.9357C325.995 47.0915 327.996 44.9143 330.564 43.4041C333.156 41.8687 336.202 41.101 339.7 41.101C342.343 41.101 344.596 41.5163 346.459 42.3469C348.321 43.1775 349.869 44.285 351.102 45.6694C352.336 47.0285 353.305 48.5639 354.009 50.2755C354.714 51.9618 355.205 53.686 355.482 55.4479C355.784 57.1846 355.935 58.8332 355.935 60.3938V82.9334H349.139ZM320.068 82.9334V28.5664H326.109V58.5815H326.864V82.9334H320.068Z"
     fill="white"
     id="path36" /><path
     d="M311.827 82.9338C309.411 83.412 307.02 83.6008 304.654 83.5001C302.313 83.4246 300.224 82.9589 298.386 82.1032C296.549 81.2222 295.152 79.863 294.196 78.0256C293.39 76.4148 292.95 74.7913 292.874 73.1553C292.824 71.494 292.799 69.6189 292.799 67.5298V30.832H299.519V67.2277C299.519 68.889 299.532 70.3111 299.557 71.494C299.607 72.677 299.871 73.6964 300.35 74.5522C301.256 76.1631 302.69 77.1069 304.654 77.3838C306.642 77.6607 309.033 77.5852 311.827 77.1573V82.9338ZM284.53 47.7085V42.1585H311.827V47.7085H284.53Z"
     fill="white"
     id="path38" /><path
     d="M271.012 34.9469V28H277.733V34.9469H271.012ZM271.012 82.9333V42.1581H277.733V82.9333H271.012Z"
     fill="white"
     id="path40" /><path
     d="M220.096 82.9322L207.637 42.1191L214.32 42.1569L223.419 71.9833L232.593 42.1569H238.521L247.657 71.9833L256.794 42.1569H263.439L250.98 82.9322H245.392L235.538 51.9354L225.684 82.9322H220.096Z"
     fill="white"
     id="path42" /><path
     d="M169.353 84.066C165.351 84.066 161.852 83.185 158.857 81.4231C155.887 79.636 153.571 77.1568 151.91 73.9854C150.249 70.7888 149.418 67.0637 149.418 62.81C149.418 58.3549 150.236 54.5039 151.872 51.257C153.508 47.9849 155.786 45.4679 158.706 43.706C161.651 41.9189 165.099 41.0254 169.051 41.0254C173.153 41.0254 176.639 41.9693 179.509 43.857C182.403 45.7447 184.568 48.4379 186.002 51.9365C187.462 55.4352 188.092 59.6008 187.89 64.4334H181.094V62.0171C181.019 57.0083 179.999 53.2706 178.036 50.8039C176.073 48.3121 173.153 47.0662 169.277 47.0662C165.124 47.0662 161.965 48.4002 159.801 51.0682C157.636 53.7362 156.554 57.562 156.554 62.5457C156.554 67.3531 157.636 71.0783 159.801 73.7211C161.965 76.364 165.048 77.6854 169.051 77.6854C171.744 77.6854 174.084 77.0687 176.073 75.8354C178.061 74.6021 179.622 72.8276 180.755 70.5119L187.211 72.7395C185.625 76.3388 183.234 79.1326 180.037 81.1211C176.866 83.0843 173.304 84.066 169.353 84.066ZM154.288 64.4334V59.0345H184.417V64.4334H154.288Z"
     fill="white"
     id="path44" /><path
     d="M122.341 84.0661C118.54 84.0661 115.281 83.1222 112.562 81.2345C109.844 79.3215 107.742 76.7416 106.257 73.4947C104.797 70.2478 104.067 66.5856 104.067 62.508C104.067 58.4305 104.797 54.7683 106.257 51.5214C107.742 48.2745 109.844 45.7197 112.562 43.8571C115.281 41.9694 118.527 41.0255 122.303 41.0255C126.154 41.0255 129.388 41.9568 132.006 43.8194C134.624 45.682 136.6 48.2367 137.934 51.4836C139.293 54.7305 139.972 58.4053 139.972 62.508C139.972 66.5604 139.293 70.2226 137.934 73.4947C136.6 76.7416 134.624 79.3215 132.006 81.2345C129.388 83.1222 126.167 84.0661 122.341 84.0661ZM123.171 77.912C125.915 77.912 128.168 77.2576 129.929 75.9488C131.691 74.6148 132.988 72.79 133.818 70.4743C134.674 68.1335 135.102 65.4781 135.102 62.508C135.102 59.4877 134.674 56.8322 133.818 54.5418C132.988 52.2261 131.704 50.4265 129.967 49.1428C128.231 47.834 126.028 47.1796 123.36 47.1796C120.591 47.1796 118.301 47.8592 116.489 49.2183C114.702 50.5775 113.368 52.4149 112.487 54.7305C111.631 57.0462 111.203 59.6387 111.203 62.508C111.203 65.4026 111.644 68.0203 112.524 70.3611C113.405 72.6767 114.727 74.5141 116.489 75.8733C118.276 77.2324 120.503 77.912 123.171 77.912ZM135.102 82.9334V52.9183H134.347V28.5664H141.105V82.9334H135.102Z"
     fill="white"
     id="path46" /><path
     d="M75.4498 84.066C72.4042 84.066 69.8495 83.5122 67.7856 82.4047C65.7468 81.2721 64.1988 79.7871 63.1417 77.9497C62.1097 76.1123 61.5938 74.0987 61.5938 71.9089C61.5938 69.7694 61.9965 67.9195 62.8019 66.3589C63.6325 64.7732 64.7903 63.4644 66.2754 62.4324C67.7604 61.3753 69.5349 60.5447 71.5988 59.9406C73.5369 59.412 75.7015 58.959 78.0926 58.5814C80.5089 58.1787 82.9504 57.8137 85.4171 57.4865C87.8837 57.1593 90.1868 56.8447 92.3262 56.5426L89.9099 57.9396C89.9854 54.3151 89.2555 51.6345 87.7201 49.8978C86.2099 48.1611 83.5923 47.2927 79.8671 47.2927C77.4005 47.2927 75.2358 47.859 73.3733 48.9917C71.5359 50.0991 70.2396 51.9114 69.4845 54.4284L63.1039 52.5029C64.0856 48.9287 65.9859 46.1223 68.8049 44.0835C71.624 42.0448 75.3365 41.0254 79.9426 41.0254C83.6426 41.0254 86.814 41.6924 89.4569 43.0264C92.1249 44.3352 94.0378 46.3237 95.1956 48.9917C95.7745 50.2502 96.1395 51.6219 96.2905 53.107C96.4415 54.5668 96.517 56.1022 96.517 57.713V82.9333H90.5517V73.1548L91.9487 74.0609C90.4133 77.3582 88.2613 79.85 85.4926 81.5364C82.7491 83.2228 79.4015 84.066 75.4498 84.066ZM76.4692 78.4405C78.8855 78.4405 80.9746 78.0126 82.7365 77.1568C84.5235 76.2759 85.9582 75.1306 87.0405 73.7211C88.1228 72.2864 88.8276 70.7259 89.1548 69.0395C89.5324 67.781 89.7337 66.3841 89.7589 64.8487C89.8092 63.2882 89.8344 62.0926 89.8344 61.262L92.1752 62.2814C89.9854 62.5834 87.8334 62.8729 85.7191 63.1497C83.6048 63.4266 81.6038 63.7287 79.7161 64.0559C77.8283 64.3579 76.1294 64.7229 74.6192 65.1508C73.5117 65.5031 72.4672 65.9562 71.4855 66.5099C70.5291 67.0637 69.7488 67.781 69.1447 68.662C68.5658 69.5177 68.2764 70.5875 68.2764 71.8711C68.2764 72.9786 68.5532 74.0357 69.107 75.0425C69.6859 76.0493 70.5668 76.8674 71.7498 77.4966C72.958 78.1259 74.5311 78.4405 76.4692 78.4405Z"
     fill="white"
     id="path48" /><path
     d="M0 82.9334V28.5664H6.11629L26.6549 71.8713L47.0803 28.5664H53.2721V82.8957H46.8916V43.3286L28.4294 82.9334H24.8427L6.38058 43.3286V82.9334H0Z"
     fill="white"
     id="path50" /><style
     type="text/css"
     id="style2">
	.st0{fill:#148F53;}
	.st1{fill:#0C7A41;}
	.st2{fill:#043553;}
</style><text
     xml:space="preserve"
     id="text25058"
     style="font-size:26.6667px;white-space:pre;shape-inside:url(#rect25060);fill:#18ea7c;fill-opacity:1;stroke:#2db957;stroke-opacity:1"
     transform="matrix(0.68024261,0,0,0.43069043,787.37262,-0.90677556)" /><text
     xml:space="preserve"
     style="font-size:103.924px;fill:#18ea7c;fill-opacity:1;stroke:#2db957;stroke-width:0.541271;stroke-opacity:1"
     x="767.00037"
     y="44.542931"
     id="text25066"
     transform="scale(1.2567512,0.79570245)"><tspan
       sodipodi:role="line"
       id="tspan25064"
       x="767.00037"
       y="44.542931"
       style="stroke-width:0.541271" /></text><text
     xml:space="preserve"
     style="font-style:normal;font-variant:normal;font-weight:bold;font-stretch:normal;font-size:69.1013px;font-family:sans-serif;-inkscape-font-specification:'sans-serif, Bold';font-variant-ligatures:normal;font-variant-caps:normal;font-variant-numeric:normal;font-variant-east-asian:normal;display:inline;fill:#18ea7c;fill-opacity:1;stroke:#2db957;stroke-width:0.359905;stroke-opacity:1"
     x="808.89398"
     y="82.650536"
     id="text25070"
     transform="scale(1.0894244,0.91791589)"><tspan
       sodipodi:role="line"
       id="tspan25068"
       x="808.89398"
       y="82.650536"
       style="font-style:normal;font-variant:normal;font-weight:bold;font-stretch:normal;font-size:69.1013px;font-family:sans-serif;-inkscape-font-specification:'sans-serif, Bold';font-variant-ligatures:normal;font-variant-caps:normal;font-variant-numeric:normal;font-variant-east-asian:normal;fill:#18ea7c;fill-opacity:1;stroke-width:0.359905" /></text><rect
     style="display:inline;fill:#2d1e7c;fill-opacity:1;stroke:#2db957;stroke-width:0.999998;image-rendering:auto"
     id="rect2638"
     width="85.777039"
     height="83.80471"
     x="789.46338"
     y="11.638683"
     inkscape:label="rect2638"
     ry="40.76683"
     rx="42.320759" /><path
     style="fill:#18ea7c;fill-opacity:1;stroke:#f6f8f6;stroke-width:0.589498;stroke-opacity:1"
     d="M 812.80793,39.258574 C 802.57149,31.709658 794.19621,25.41149 794.19621,25.262643 c 0,-0.148847 8.13651,-5.39461 18.08113,-11.65725 17.03684,-10.7289703 18.2226,-11.3779385 20.5304,-11.2363382 2.12336,0.1302834 4.74498,1.6779714 19.70235,11.6314182 9.4892,6.314626 17.25309,11.625331 17.25309,11.801567 0,0.549445 -36.61171,26.740263 -37.80514,27.044554 -0.29611,0.0755 -8.91367,-6.039111 -19.15011,-13.58802 z"
     id="path20230" /><path
     style="fill:#18ea7c;fill-opacity:1;stroke:#2db957;stroke-width:0.589498;stroke-opacity:1"
     d="m 822.30955,98.880812 c -1.42614,-1.037637 -9.47203,-6.675319 -17.87976,-12.528177 L 789.143,75.711075 788.63302,64.280865 c -0.28049,-6.286615 -0.4025,-14.377893 -0.27113,-17.980614 l 0.23886,-6.55041 17.84802,12.764747 17.84801,12.764751 0.44707,17.694865 c 0.2459,9.732178 0.38219,17.716996 0.30289,17.744046 -0.0793,0.0271 -1.31105,-0.799797 -2.73719,-1.837438 z"
     id="path23615" /><path
     style="fill:#18ea7c;fill-opacity:1;stroke:#2db957;stroke-width:0.589498;stroke-opacity:1"
     d="m 839.91011,97.380937 c -0.25976,-1.741407 -0.47466,-9.987065 -0.47755,-18.323686 l -0.005,-15.157495 18.3361,-13.067018 18.33611,-13.067013 0.46107,8.523771 c 0.25358,4.68807 0.50362,13.126329 0.55563,18.75168 l 0.0962,8.98279 -18.1759,13.884141 c -9.47518,7.237878 -18.28224,12.639023 -18.41418,12.639023 -0.13193,0 -0.45242,-1.424791 -0.71217,-3.166193 z"
     id="path23617"
     sodipodi:nodetypes="cccccsscsscc" /></svg>
