<svg xmlns="http://www.w3.org/2000/svg" xml:space="preserve" x="0" y="0" viewBox="0 0 1080 1080"><switch><g><path d="M723.86 595.96c0 10.96-1 21.66-2.96 32.06a173.08 173.08 0 0 1-25.74 63.87c-31.22 47.41-84.94 78.72-145.98 78.72-19.98 0-39.16-3.36-57.06-9.52-57.34-19.8-101.13-68.6-113.83-128.9-1.03-4.86-1.84-9.8-2.46-14.82-.84-7-1.31-14.16-1.31-21.42 0-78.91 52.36-145.61 124.2-167.24 15.97-4.82 32.9-7.41 50.46-7.41 28.57 0 55.53 6.85 79.34 19.05 2.21 1.09 4.36 2.24 6.51 3.46.03 0 .03.03.03.03 3.08 1.71 6.1 3.55 9.06 5.48.03 0 .03 0 .03.03 8.12 5.26 15.78 11.17 22.88 17.68 34.91 31.94 56.83 77.88 56.83 128.93z" fill="#31205b"></path><path d="M487.5 537.18c7.3 20.18 13.07 43.8 2 62.2-11.04 18.41-35.81 24.55-56.9 20.5-10.67-2.06-21.46-6.24-32.1-3.99-8.2 1.78-15.22 7.3-22.59 16-1.03-4.87-1.84-9.83-2.46-14.85-.84-7.02-1.31-14.19-1.31-21.46 0-79.08 52.47-145.93 124.47-167.61-1.53 16.94-15.69 30.32-20.71 46.73-6.34 20.49 2.3 42.27 9.6 62.48zm135.54-91.47c-6.9 9.79-14.15 21.58-10.45 32.97 1.28 3.93 3.76 7.33 5.71 10.97 6.27 11.73 6.73 26.4 1.2 38.5-6.89 15.08-22.71 27.9-20.13 44.29 1.65 10.45 11.13 18.45 21.43 20.86 10.3 2.41 21.17.13 31.04-3.66 10.55-4.05 22.22-9.85 32.48-5.12 9.03 4.17 12.77 14.71 16.47 23.94 3.7 9.23 9.89 19.36 20.33 20.58v-1.76l-98.08-181.57z" fill="#fff"></path><path d="M724.24 595.58c0 10.98-1 21.71-2.96 32.13-2.09.81-4.52.69-6.15-.84l-92.18-180.65c1.4-1.87 3.46-4.55 5.74-6.58 2.21 1.09 4.37 2.25 6.52 3.46.03 0 .03.03.03.03 3.09 1.72 6.11 3.56 9.08 5.49.03 0 .03 0 .03.03 8.14 5.27 15.82 11.2 22.93 17.72 35 32.01 56.96 78.05 56.96 129.21zm-28.76 96.14c-31.29 47.51-85.13 78.89-146.3 78.89-20.03 0-39.24-3.37-57.18-9.55 8.98-5.58 14.19-16.53 17.13-27.01 3.43-12.2 5.08-25.33 12.32-35.72 15.63-22.52 50.04-23.24 68.82-43.24 10.2-10.86 15.41-27.05 28.79-33.6 14.94-7.3 33.1 1.22 44.86 13.01 15.49 15.58 24.63 36.29 31.56 57.22z" fill="#fff"></path><path d="m958.4 772.5 4.13 12.4L924 803.02l4.78 15.06s28.36-5.57 60.77-12.94c32.41-7.37 24.68-6.79 24.68-6.79l-10.54-39.33" fill="#00e98d"></path><path d="M928.79 819.78c-.73 0-1.39-.47-1.62-1.18l-4.78-15.06c-.26-.81.13-1.69.9-2.05l37.16-17.47-3.66-10.97c-.3-.89.18-1.85 1.07-2.15.9-.3 1.85.18 2.15 1.07l4.13 12.4c.27.82-.11 1.71-.89 2.07l-37.18 17.48 3.87 12.2c6.26-1.25 31.39-6.31 59.24-12.64 14.6-3.32 20.65-4.94 23.15-5.72l-10.27-38.31a1.698 1.698 0 0 1 3.28-.88l10.25 38.23c.83.3 1.07.94 1.14 1.39.3 1.96.36 2.43-26.79 8.6-32.06 7.3-60.54 12.9-60.82 12.96-.11.02-.22.03-.33.03z"></path><path d="M1033.94 347.46c0 90.17-73.09 163.23-163.23 163.23-90.17 0-163.26-73.07-163.26-163.23S780.54 184.2 870.71 184.2c8.78 0 17.39.7 25.8 2.04 15.91 2.53 31.09 7.36 45.11 14.14 54.62 26.37 92.32 82.33 92.32 147.08z" fill="#31205b"></path><path d="m946.33 264.53 33.77 10.76 3.52.58.23.03-.17-.38-14.14-30.6-27.92-44.56a162.074 162.074 0 0 0-45.11-14.14c4.22 7.45 9.02 16.26 12.25 23.24 3.34 7.18 11.14 27.75 18.12 46.51" fill="#00e98d"></path><path d="M983.85 277.6c-.07 0-.14 0-.22-.01l-3.81-.62-34.01-10.82a1.695 1.695 0 0 1-1.1-2.13c.29-.89 1.24-1.38 2.13-1.1l34.13 10.82-12.97-28.1-27.56-43.96a159.977 159.977 0 0 0-40.71-13.18c4.58 8.19 8.13 14.99 10.56 20.26 2.74 5.89 8.69 21.14 18.17 46.63.33.88-.12 1.85-1 2.18a1.7 1.7 0 0 1-2.18-1c-9.45-25.4-15.36-40.58-18.07-46.39-2.7-5.83-6.8-13.61-12.19-23.12-.32-.57-.29-1.27.08-1.81s1.01-.81 1.66-.71c15.86 2.52 31.19 7.33 45.59 14.28.29.14.53.36.7.63l27.92 44.56 14.41 31.17c.26.56.19 1.22-.18 1.71-.31.46-.82.71-1.35.71z"></path><path d="M792.53 283.08s-6.51-.53-8.45-1.58c-1.65-.89-3.32-1.51-5.06-1.86-2.88-.61-5.82-.54-8.58.17-1.46.38-2.88.95-4.17 1.63-3.06 1.62-5.68 4.03-7.49 7.22-.1.19-.21.37-.3.53-2.16 4.04-2.71 8.48-1.93 12.63 1.08 5.39 4.44 10.22 9.62 13 5.98 3.2 13.27 3.44 18.36-.26 1.33-.97 4.89-4.4 4.89-4.4l7.1-19.44-4.13-7.51" fill="#fff"></path><path d="m865.29 320.2 21.65-4.05 26.77-15.64 25.77-18.96L957.71 267s-8.28-9.21-11.41-8.84c-3.13.37-9.94-3.13-9.94-3.13l-7.36-1.1-5.52 4.42-49.6 16.67-22.87 10.44-17.34 10.27-2.52 9.07 4.54 5.34 16.93 9.45 12.67.61z" fill="#00e98d"></path><path d="m801.93 343.89-4.94-10.06.05-9.9 2.19-5.71 11.17-8.28 8.35-5.48 7.97-4.12s24.77-7.37 28.04-7.59c6.12-.41 8.76 7.65 8.76 7.65l15.72 9.9 3.85 11.01-72.67 30.82-8.49-8.24z" fill="#00e98d"></path><path d="M776.2 341.26c4.83 4.89 15.5 15.62 27.89 28.16 21.67 21.87 48.66 49.21 59.51 60.67 27.72 29.2 30.71 35.16 30.71 35.16l54.89-89.26s-41.83-37-56.92-52.09c-1.6-1.6-3.43-3.34-5.41-5.24l-.03-.03" fill="#00e98d"></path><path d="M894.32 466.95h-.07c-.61-.03-1.17-.38-1.44-.93-.12-.23-3.62-6.51-30.43-34.76-8.58-9.06-28.59-29.46-59.49-60.65-7.53-7.62-14.43-14.58-19.77-19.96l-8.13-8.2c-.66-.67-.65-1.74.01-2.4.67-.66 1.74-.65 2.4.01l8.12 8.2c5.34 5.38 12.24 12.34 19.77 19.96 30.91 31.2 50.94 51.62 59.54 60.7 19.2 20.22 26.62 29.4 29.41 33.2L947 376.31c-6.64-5.89-42.32-37.61-55.93-51.22-1.47-1.47-3.13-3.06-4.93-4.77l-.45-.43 2.38-2.42.42.4c1.82 1.73 3.5 3.34 4.98 4.83 14.89 14.89 56.43 51.65 56.85 52.02.62.55.75 1.46.32 2.16l-54.89 89.26c-.29.51-.84.81-1.43.81z"></path><path d="M936.58 767.75c2.38-34.1 3.49-56.21 4.56-77.61.93-18.65 1.82-36.26 3.47-59.84 1.61-22.99-5.78-64.18-17.99-100.17-15.92-46.93-45.05-82.83-51.13-90.01l74-63.6 70.78 32.31c-1.21 3.25-5.12 12.46-15.74 29.12-8.94 14.03-19.61 23.75-19.72 23.84a1.69 1.69 0 0 0-.42 1.93c.36.83 35.83 83.81 32.78 143.65l.71 125.22c.04 7.04-.22 14.16-.78 21.17l-1.82 22.84-78.7-8.85z"></path><path d="m949.77 378.52 68.33 31.2c-1.66 4.05-5.76 12.83-15 27.33-8.81 13.82-19.32 23.4-19.43 23.5a3.38 3.38 0 0 0-.84 3.86c.36.83 35.67 83.46 32.64 142.89v.19l.71 125.12c.04 6.99-.22 14.06-.78 21.02l-1.68 21.09-75.33-8.48c2.31-33.2 3.39-54.96 4.45-76.03.93-18.64 1.81-36.24 3.47-59.8 1.63-23.19-5.81-64.65-18.08-100.83-15.21-44.83-42.41-79.67-50.36-89.27l71.9-61.79m-.57-3.99-76.11 65.42s34.08 38.13 51.92 90.73c12.71 37.46 19.44 77.72 17.91 99.5-3.55 50.5-3.53 73.37-8.15 139.07l82.05 9.23 1.96-24.59c.56-7.09.83-14.2.79-21.31l-.71-125.12c3.1-60.94-32.92-144.41-32.92-144.41s10.83-9.78 20.01-24.19c13.92-21.85 16.41-30.93 16.41-30.93l-73.16-33.4zm-153.11-57.5c-.51 0-1.02-.23-1.36-.67l-5.9-7.81c-.57-.75-.42-1.81.33-2.38.75-.57 1.81-.42 2.38.33l5.9 7.81a1.694 1.694 0 0 1-1.35 2.72z"></path><path d="M798.49 319.77c-3.36 3-18.51 18.05-21.79 21.49-46.32 48.05-85.38 132.61-85.38 132.61l30.76 31.3s53.78-93.22 87.07-130.63" fill="#00e98d"></path><path d="M722.09 506.86c-.45 0-.89-.18-1.21-.51l-30.76-31.3c-.5-.5-.63-1.26-.33-1.9.39-.85 39.71-85.37 85.7-133.07 3.18-3.33 18.42-18.49 21.88-21.58.7-.62 1.77-.56 2.4.14.62.7.56 1.77-.14 2.4-3.42 3.05-18.53 18.07-21.69 21.39-42.8 44.41-79.87 121.17-84.57 131.08l28.37 28.87c7.91-13.57 55.78-94.85 86.16-128.98.62-.7 1.7-.76 2.4-.14s.76 1.7.14 2.4c-32.8 36.85-86.34 129.42-86.87 130.35-.27.46-.73.77-1.26.84-.08 0-.15.01-.22.01z"></path><path d="M865.15 330.61c30.42-15.79 78.97-32.23 106.6-41.01 6.54-2.09 10.85-7.59 11.87-13.73.03-.12.03-.23.06-.35.52-3.81-.17-7.85-2.36-11.46 0 0-15.58-25.86-15.95-25.8" fill="#00e98d"></path><path d="M865.15 332.31c-.61 0-1.21-.33-1.51-.92a1.7 1.7 0 0 1 .72-2.29c30.91-16.04 80.22-32.65 106.87-41.12 5.63-1.8 9.74-6.55 10.71-12.39.03-.23.05-.35.08-.47.47-3.48-.27-7.06-2.16-10.19-5.48-9.09-14.45-23.83-15.66-25.43-.27-.25-.46-.59-.52-.99-.14-.93.49-1.79 1.42-1.93 1.53-.24 1.51-.22 17.67 26.6 2.3 3.8 3.19 8.14 2.58 12.57-.04.28-.06.41-.09.54-1.15 6.96-6.14 12.73-12.99 14.92-26.55 8.44-75.66 24.98-106.34 40.9-.25.14-.52.2-.78.2z"></path><path d="M814.71 306.76c3.72-2.5 22.05-13.5 26.18-15.82 28.85-16.43 60.99-27.75 85.98-34.96" fill="#00e98d"></path><path d="M814.71 308.46c-.55 0-1.08-.26-1.41-.75-.52-.78-.32-1.83.46-2.36 3.66-2.46 22-13.47 26.29-15.89 29.98-17.08 63.5-28.52 86.34-35.11a1.697 1.697 0 0 1 .94 3.26c-22.66 6.54-55.91 17.89-85.61 34.8-4.27 2.41-22.45 13.32-26.07 15.76-.28.2-.61.29-.94.29z"></path><path d="m788.43 309.36 9.13 10.64 16.72-12.85-21.41-27.49" fill="#fff"></path><path d="M797.56 321.7c-.48 0-.95-.2-1.29-.59l-9.13-10.64a1.695 1.695 0 1 1 2.57-2.21l8.08 9.42 14.09-10.83-20.36-26.14a1.69 1.69 0 0 1 .3-2.38c.74-.58 1.8-.45 2.38.3l21.41 27.49c.28.36.4.81.34 1.26-.06.45-.29.86-.65 1.13l-16.72 12.85c-.29.23-.66.34-1.02.34z"></path><path d="m762.15 311.88-17.11-14.46 29.41-34.31 16.15 15.49" fill="#fff"></path><path d="M762.15 313.58c-.39 0-.78-.13-1.09-.4l-17.11-14.46a1.692 1.692 0 0 1-.2-2.4L773.16 262c.3-.35.74-.57 1.21-.59.48-.03.92.15 1.26.47l16.15 15.5c.68.65.7 1.72.05 2.4-.65.68-1.72.7-2.4.05l-14.85-14.26-27.13 31.66 15.81 13.36c.72.61.81 1.68.2 2.39-.35.4-.83.6-1.31.6z"></path><path d="m744.16 296.43 8.26 9.66 3.91-3.36-.92-4.21-3.51-2.01-3.62 1.52z" fill="#fff"></path><path d="M750.25 292.35c9.91-10.38 16.65-27.89 22.66-21.44 10.43 11.2 22.82-14.67 22.82-14.67s-23.93-26.23-52.13-7.06c-8.81 5.99.8 11.85 1.5 16.08 1.55 9.31.39 32.07 5.15 27.09z"></path><path d="M749.02 294.75c-.36 0-.66-.08-.88-.16-2.69-1-3.21-5.89-3.81-17.67-.21-4.2-.43-8.54-.91-11.39-.14-.87-1.07-2.17-1.96-3.43-1.67-2.36-3.75-5.3-3.16-8.59.39-2.14 1.81-4.02 4.34-5.74 29.07-19.77 54.09 7.05 54.34 7.32.47.51.58 1.25.28 1.88-.33.69-8.21 16.94-17.38 18.34-3.01.46-5.78-.63-8.22-3.25-.75-.81-1.26-.87-1.6-.85-2.35.17-5.9 5.32-9.35 10.3-2.72 3.93-5.79 8.38-9.24 12-.92.98-1.78 1.24-2.45 1.24zm-.26-3.34zm16.32-47.58c-6.29 0-13.24 1.81-20.52 6.76-1.71 1.17-2.69 2.36-2.91 3.54-.34 1.88 1.15 3.98 2.59 6.02 1.16 1.65 2.26 3.2 2.54 4.84.51 3.04.72 7.28.95 11.77.25 4.85.61 11.94 1.49 14.21 3.19-3.38 6.11-7.62 8.7-11.37 4.43-6.41 7.93-11.47 11.89-11.76 1.6-.1 3.04.53 4.33 1.92 1.65 1.77 3.36 2.49 5.22 2.21 5.69-.87 11.81-10.59 14.3-15.4-3.01-3-14-12.74-28.58-12.74z"></path><path d="m790.5 311.77-9.45 8.64c-4.8 4.39-12.24 4.05-16.63-.74l-17.39-19.01" fill="#fff"></path><path d="M773.12 325.18c-3.65 0-7.29-1.47-9.95-4.37l-17.39-19.01 2.51-2.29 17.39 19.01c3.75 4.1 10.13 4.39 14.23.63l9.45-8.64 2.29 2.51-9.45 8.64a13.414 13.414 0 0 1-9.08 3.52zm-5.43-55.17c-.26-3.89-2.19-7.67-5.61-10.15-6.12-4.44-14.67-3.07-19.11 3.05a13.988 13.988 0 0 0-2.25 4.87c-.43 1.78-.47 3.61-.16 5.42.58 3.41 2.4 6.6 5.43 8.8.87.63 1.79 1.15 2.76 1.54"></path><path d="M748.76 285.24c-.21 0-.42-.04-.62-.12-1.08-.43-2.11-1-3.14-1.74-3.26-2.37-5.43-5.88-6.11-9.89-.35-2.07-.29-4.13.18-6.1.49-2 1.33-3.84 2.52-5.48 2.42-3.33 5.98-5.51 10.04-6.16 4.05-.65 8.12.32 11.45 2.74 3.69 2.68 5.99 6.84 6.3 11.41.06.93-.64 1.74-1.58 1.81-.91.06-1.74-.64-1.81-1.58-.24-3.56-2.03-6.8-4.91-8.89-2.59-1.88-5.76-2.65-8.92-2.14-3.16.51-5.94 2.21-7.82 4.81-.93 1.28-1.59 2.72-1.97 4.28-.37 1.52-.41 3.11-.14 4.73.53 3.13 2.22 5.87 4.76 7.71.8.58 1.58 1.01 2.39 1.33.87.34 1.3 1.33.95 2.2-.26.67-.9 1.08-1.57 1.08zm32.95-15.94.02.02c4.93.74 10.1-1.18 13.23-5.49.77-1.06 1.38-2.2 1.78-3.38 2.03-5.57.24-12.05-4.82-15.73-4.57-3.32-10.53-3.37-15.11-.62a13.4 13.4 0 0 0-3.98 3.65c-4.44 6.12-3.09 14.69 3.01 19.12l.02.02"></path><path d="M783.84 271.18c-.78 0-1.57-.06-2.35-.18a1.704 1.704 0 0 1-1.1-2.73c.43-.56 1.14-.77 1.78-.6 4.44.59 8.81-1.24 11.42-4.84.69-.95 1.21-1.93 1.54-2.92 1.83-5.03.1-10.69-4.21-13.82-3.89-2.82-9.09-3.03-13.24-.54-1.34.8-2.54 1.9-3.48 3.19-3.89 5.35-2.71 12.87 2.63 16.75.76.55.94 1.61.39 2.37-.55.76-1.59.94-2.35.4-6.89-5.01-8.41-14.65-3.42-21.51 1.22-1.68 2.73-3.06 4.49-4.11 5.33-3.19 11.99-2.92 16.98.71 5.52 4.01 7.75 11.29 5.42 17.68-.42 1.27-1.1 2.56-2 3.8a15.408 15.408 0 0 1-12.5 6.35z"></path><path d="M783.58 268.22c-2.43 4.11-1.56 9.49 2.24 12.62 4.21 3.46 10.42 2.84 13.88-1.37a9.715 9.715 0 0 0 1.89-3.68c1-3.63-.15-7.64-3.24-10.18-.6-.49-1.23-.91-1.92-1.23"></path><path d="M792.06 284.77c-2.58 0-5.17-.86-7.32-2.62-4.43-3.65-5.54-9.87-2.63-14.79.48-.81 1.52-1.07 2.32-.6.81.48 1.07 1.52.6 2.32-2.02 3.42-1.22 7.91 1.86 10.44 3.48 2.86 8.63 2.34 11.49-1.14.74-.9 1.26-1.92 1.56-3.04.85-3.09-.2-6.4-2.68-8.44-.52-.42-1.03-.75-1.56-1a1.7 1.7 0 0 1-.82-2.26c.4-.85 1.41-1.21 2.26-.82.79.37 1.54.85 2.28 1.45 3.51 2.89 5 7.58 3.8 11.94-.42 1.58-1.16 3.03-2.21 4.31-2.28 2.81-5.6 4.25-8.95 4.25z"></path><circle cx="769.6" cy="271.79" r="8.08"></circle><path d="M769.6 281.57c-.73 0-1.47-.08-2.2-.25-5.25-1.22-8.54-6.48-7.33-11.73 1.22-5.25 6.49-8.53 11.73-7.33 5.25 1.22 8.54 6.48 7.33 11.73-1.04 4.52-5.08 7.58-9.53 7.58zm-6.22-11.21c-.79 3.43 1.35 6.87 4.78 7.66 3.42.8 6.87-1.35 7.66-4.78a6.397 6.397 0 0 0-4.78-7.66c-3.43-.8-6.86 1.35-7.66 4.78z"></path><path d="M747.86 277.65c-1.88-.72-3.73-1.7-5.44-2.95-.66-.48-1.28-.96-1.86-1.5a23.29 23.29 0 0 1-3.82-4.39l-.02-.02c-5.35-7.98-5.45-18.77.51-26.99 7.64-10.52 22.37-12.87 32.88-5.23 2.85 2.07 5.09 4.63 6.69 7.52 3.81 6.73 4.1 15.09.46 22.23"></path><path d="M747.86 279.34c-.2 0-.41-.04-.61-.11-2.09-.8-4.05-1.86-5.83-3.16-.71-.52-1.38-1.04-2.01-1.61a24.446 24.446 0 0 1-4-4.58c-.04-.04-.07-.09-.1-.14-5.87-8.77-5.65-20.39.55-28.93 3.96-5.46 9.81-9.04 16.47-10.1 6.66-1.07 13.33.53 18.79 4.5 3 2.18 5.41 4.89 7.18 8.07 4.16 7.34 4.35 16.25.49 23.82-.43.83-1.45 1.17-2.28.74a1.685 1.685 0 0 1-.74-2.28c3.34-6.55 3.18-14.26-.43-20.62a21.51 21.51 0 0 0-6.21-6.99c-4.72-3.43-10.49-4.82-16.26-3.89-5.76.92-10.83 4.02-14.26 8.75-5.34 7.35-5.56 17.35-.55 24.93.04.04.07.09.1.14.98 1.48 2.17 2.85 3.54 4.07.55.5 1.12.95 1.73 1.39 1.55 1.13 3.25 2.05 5.05 2.74.88.33 1.31 1.32.98 2.19-.27.66-.91 1.07-1.6 1.07z"></path><path d="m783.1 316.15 9.67-8.26-3.36-3.92-4.21.92-2.02 3.52 1.53 3.62z" fill="#fff"></path><path d="m778.195 273.81 9.048 5.822-1.731 2.691-9.049-5.823z"></path><circle fill="#fff" cx="784.34" cy="277.69" r="9.48"></circle><path d="M784.34 288.87c-.83 0-1.67-.09-2.52-.29-2.91-.67-5.38-2.44-6.96-4.97s-2.08-5.53-1.41-8.44c1.39-6 7.39-9.76 13.41-8.37 6 1.39 9.76 7.4 8.37 13.41-1.19 5.15-5.8 8.66-10.89 8.66zm-7.58-12.94c-.47 2.03-.12 4.11.98 5.87s2.82 2.99 4.85 3.46c4.19.97 8.37-1.65 9.34-5.83.97-4.18-1.65-8.37-5.83-9.33-4.18-.96-8.38 1.65-9.34 5.83z"></path><circle cx="740.36" cy="278.23" r="23.03"></circle><path d="M740.36 302.96c-13.63 0-24.73-11.09-24.73-24.73 0-13.63 11.09-24.73 24.73-24.73s24.73 11.09 24.73 24.73c0 13.63-11.1 24.73-24.73 24.73zm0-46.06c-11.76 0-21.33 9.57-21.33 21.33s9.57 21.33 21.33 21.33 21.33-9.57 21.33-21.33-9.57-21.33-21.33-21.33zm153.96 210.05c-.3 0-.6-.08-.88-.25-.8-.49-1.06-1.53-.57-2.33l54.35-89.72c.49-.8 1.53-1.06 2.33-.57.8.49 1.06 1.53.57 2.33l-54.35 89.72c-.32.53-.88.82-1.45.82z"></path><path d="m701.91 484.57.06-.06 12.36 12.36-6.52 6.52c-5.44 5.41-14.22 5.41-19.66 0l-2.5-2.53.12-.15" fill="#fff"></path><path d="M697.99 509.13c-3.99 0-7.99-1.51-11.03-4.54l-2.51-2.54c-.61-.61-.66-1.58-.12-2.25.58-.73 1.71-.93 2.44-.34.23.18.4.4.51.63l2.08 2.11c4.75 4.72 12.5 4.73 17.26-.01l5.31-5.31-10.91-10.9c-.1-.06-.2-.14-.29-.23-.66-.66-.69-1.71-.03-2.37l.06-.06c.66-.66 1.74-.66 2.4 0l12.36 12.36c.32.32.5.75.5 1.2 0 .45-.18.88-.5 1.2L709 504.6c-3.02 3.02-7.02 4.53-11.01 4.53z"></path><path d="m701.91 484.57-7.34-7.4-17.68 17.65a3.413 3.413 0 0 0-.03 4.8l.64.65a6.17 6.17 0 0 0 8.26.44" fill="#fff"></path><path d="M681.88 503.79c-2.02 0-4.04-.78-5.57-2.32l-.65-.66c-1.95-1.99-1.94-5.22.04-7.19l17.68-17.65c.32-.32.75-.5 1.2-.5.45 0 .88.18 1.2.5l7.34 7.4c.66.66.66 1.74-.01 2.4-.67.66-1.74.66-2.4-.01l-6.14-6.19-16.47 16.45c-.66.66-.67 1.74-.01 2.41l.64.65a4.463 4.463 0 0 0 5.98.3c.73-.59 1.8-.47 2.39.25.59.73.48 1.8-.25 2.39a7.861 7.861 0 0 1-4.97 1.77z"></path><path d="m661.93 521.03 30.37-27.1a.74.74 0 0 1 1.04.06l2.41 2.7c.27.3.24.77-.06 1.04l-30.37 27.1a.74.74 0 0 1-1.04-.06l-2.41-2.7a.74.74 0 0 1 .06-1.04z"></path><path d="M664.97 525.99c-1.16 0-2.31-.47-3.13-1.4-.81-.9-1.18-1.98-1.12-3.1.06-1.12.56-2.15 1.4-2.89l27.74-24.75c.84-.75 1.93-1.13 3.03-1.06 1.12.06 2.15.56 2.89 1.4.81.9 1.18 1.98 1.12 3.1a4.124 4.124 0 0 1-1.4 2.89l-27.74 24.74a4.17 4.17 0 0 1-2.79 1.07zm-.59-4.87a.797.797 0 0 0-.07 1.13c.25.28.49.32.61.33.14-.01.37-.01.58-.2l27.74-24.74a.797.797 0 0 0 .07-1.13c-.25-.28-.49-.33-.61-.33-.13-.02-.36.01-.58.2l-27.74 24.74z"></path><circle fill="#00e98d" cx="654.87" cy="528.92" r="23.94"></circle><path d="M654.87 554.56c-14.14 0-25.64-11.5-25.64-25.64s11.5-25.64 25.64-25.64 25.64 11.5 25.64 25.64-11.5 25.64-25.64 25.64zm0-47.89c-12.27 0-22.25 9.98-22.25 22.25 0 12.26 9.98 22.24 22.25 22.24 12.26 0 22.24-9.98 22.24-22.24 0-12.27-9.97-22.25-22.24-22.25z"></path><path d="M521.99 614.68c-2.29.95-4.2-.08-6.43-1.16-2.23-1.08-4.08-3.82-2.85-5.97.78-1.35 2.47-1.9 3.46-3.11 1.1-1.34 1.16-3.25.85-4.96-.31-1.7-.94-3.36-1.04-5.09-.31-5.4 5.05-9.96 10.46-10.11 5.41-.15 10.42 3.17 13.79 7.4 1.28 1.6 2.41 3.43 2.64 5.47.14 1.2-.04 2.43-.39 3.59-1.52 5.07-6.48 8.91-11.78 9.1-2.43.09-5.52-.2-6.63 1.97-.49 1-1.07 2.46-2.08 2.87z" fill="#fff"></path><path d="M763.59 306.87c-.43 0-.87-.17-1.2-.5l-3.14-3.14c-.66-.66-.66-1.74 0-2.4.66-.66 1.74-.66 2.4 0l3.14 3.14c.66.66.66 1.74 0 2.4-.33.34-.77.5-1.2.5zM349.63 735.44l2.76 5.21" fill="#111413"></path><path d="M45.67 174.39h342.61V427.6H45.67z" fill="#31205b"></path><path d="M374.41 214.2H59.54c-.7 0-1.27-.57-1.27-1.27s.57-1.27 1.27-1.27h314.87c.7 0 1.27.57 1.27 1.27s-.57 1.27-1.27 1.27z" fill="#fff"></path><circle cx="300.03" cy="243.09" r="13.36"></circle><circle cx="295.27" cy="226.29" r="13.36"></circle><circle cx="274.29" cy="217.05" r="13.36"></circle><circle cx="254.65" cy="228.84" r="13.36"></circle><path d="M268.01 271.36v-26.99h17.32c4.09 0 17.35-.57 17.35-.57l-.98 25.64c0 9.83-7.97 17.8-17.8 17.8-8.77.01-15.89-7.11-15.89-15.88z" fill="#ebebeb"></path><path d="M283.9 288.94c-9.7 0-17.58-7.89-17.58-17.58v-26.99c0-.94.76-1.7 1.7-1.7h17.32c4.01 0 17.14-.56 17.27-.57.45-.04.93.16 1.27.49.34.33.52.79.5 1.27l-.98 25.64c0 10.69-8.75 19.44-19.5 19.44zm-14.19-42.88v25.3c0 7.82 6.37 14.19 14.19 14.19 8.88 0 16.11-7.23 16.11-16.11l.91-23.87c-3.8.16-12.38.49-15.58.49h-15.63z"></path><path d="M270.8 262.44c0-4.86 2.09-12.2 9.89-15.35 5.93-2.39 17.31-.85 21.02-2.72 8.59-4.34 5.76-16.52-3.83-22.47-3.51-2.18-9.42-4.84-23.36-4.84-17.58 0-27.51 14.47-40.43 25.33-27.62 23.21-54.86 27.73-69.87 31.35-22.78 5.49-43.52 48.44-21.75 70.2 21.77 21.77 86.23 21.96 103.56 13s18.92-43.78 24.44-55.93l.33-38.57z"></path><path d="m272.82 282.73-1.18 3.49-1.07 3.19-1.66 4.92c-1.44 4.18-5.37 6.87-9.64 6.87-.68 0-1.37-.07-2.06-.21-6.17-1.27-9.73-7.75-7.49-13.63l2.11-5.95 5.83-16.38" fill="#ebebeb"></path><path d="M259.26 302.9c-.81 0-1.59-.08-2.41-.25-3.42-.7-6.36-2.86-8.04-5.93-1.68-3.06-1.94-6.7-.69-9.96l7.93-22.29c.31-.89 1.29-1.34 2.17-1.03.88.31 1.34 1.29 1.03 2.17l-7.94 22.33a8.54 8.54 0 0 0 .48 7.16c1.2 2.19 3.3 3.74 5.75 4.24 4.31.89 8.39-1.58 9.75-5.55l3.92-11.59a1.695 1.695 0 0 1 3.21 1.09l-3.92 11.6a11.892 11.892 0 0 1-11.24 8.01z"></path><path d="M258.15 259.37h31.39v23.48h-31.39z" fill="#ebebeb"></path><circle fill="#ebebeb" cx="264" cy="259.37" r="8.22"></circle><path d="M264 269.29c-5.47 0-9.92-4.45-9.92-9.92s4.45-9.92 9.92-9.92 9.92 4.45 9.92 9.92-4.45 9.92-9.92 9.92zm0-16.44c-3.6 0-6.52 2.93-6.52 6.52 0 3.6 2.93 6.52 6.52 6.52 3.6 0 6.52-2.93 6.52-6.52.01-3.6-2.92-6.52-6.52-6.52z"></path><path d="M254.87 375.13c.99 0 1.97-1.7 2.94-1.7-1 0-1.98 1.7-2.94 1.7z" fill="#ebebeb"></path><path d="M302.63 328.22 276.2 427.6H148.4l26.1-98.27c9.44-35.54 45.94-56.71 81.49-47.25l23.49 6.24c17.43 4.63 27.78 22.5 23.15 39.9z" fill="#00e98d"></path><path d="M277.51 429.3H146.19l26.67-100.41c4.68-17.63 15.96-32.38 31.75-41.53 15.79-9.16 34.19-11.61 51.82-6.92l23.49 6.24c8.86 2.36 16.28 8.02 20.88 15.95 4.6 7.93 5.83 17.17 3.47 26.03L277.51 429.3zm-126.9-3.4H274.9l26.09-98.12c2.13-7.98 1.01-16.31-3.13-23.45-4.14-7.15-10.82-12.25-18.81-14.37l-23.49-6.24c-16.75-4.46-34.24-2.13-49.24 6.57s-25.72 22.72-30.17 39.47l-25.54 96.14z" fill="#111413"></path><path d="m377.66 499.14 52.8 50.94a2.965 2.965 0 0 0 4.12 0c1.28-1.23 1.19-3.3-.18-4.43l-56.74-46.51z"></path><path d="M432.52 552.61a4.69 4.69 0 0 1-3.24-1.31l-52.8-50.94 2.25-2.53 56.74 46.51a4.653 4.653 0 0 1 .28 6.95c-.9.88-2.07 1.32-3.23 1.32zm-23.46-25.54 22.58 21.78c.49.48 1.27.48 1.76 0 .36-.34.4-.75.39-.96a1.28 1.28 0 0 0-.46-.93l-24.27-19.89z"></path><path d="M192.66 298.46c-1.51 1.15-2.88 3.12-4.26 4.5l-42.73 43.79-13.66 13.66c-.12.12-.25.26-.37.38-16.37 16.96-7.58 48.15-7.58 48.15l2.52 2.16c5.88 5.05 14.56 5.08 20.47.07l7.34-6.21v-.01h.01v-.01" fill="#00e98d"></path><path d="M136.87 416.63c-4.05 0-8.09-1.42-11.38-4.25l-2.52-2.16c-.25-.22-.44-.51-.53-.83-.37-1.31-8.86-32.33 7.99-49.79l.39-.4 13.66-13.66 42.72-43.77c.51-.51 1-1.08 1.5-1.66.92-1.07 1.87-2.17 2.95-3 .74-.57 1.81-.42 2.38.32.57.74.43 1.81-.32 2.38-.8.61-1.63 1.58-2.43 2.51-.56.65-1.11 1.29-1.66 1.84l-42.72 43.77-13.68 13.68-1.57-.82 1.22 1.18c-14.41 14.93-8.28 42.08-7.29 46.03l2.12 1.82c5.28 4.54 12.96 4.57 18.27.06l7.26-6.14c.08-.08.17-.15.27-.22 1-.65 2.62.14 2.62 1.42 0 .37-.12.71-.31.99-.08.12-.18.23-.3.33l-7.34 6.21c-3.29 2.78-7.3 4.16-11.3 4.16z"></path><path d="m162.8 381.64-.02-.01 1.52-3.03z"></path><path d="m131.64 360.79-56.12-21.33L55 369.34l70.85 43.82c6.53 4 14.9 3.36 20.75-1.59l.47-.4 7.34-6.21v-.01h.01v-.01" fill="#00e98d"></path><path d="M135.12 417.48c-3.5 0-7.02-.95-10.16-2.87L54.1 370.79a1.69 1.69 0 0 1-.51-2.4l20.52-29.89c.44-.64 1.27-.9 2-.62l56.12 21.33c.88.33 1.32 1.31.98 2.19-.33.88-1.31 1.32-2.19.98l-54.87-20.85-18.75 27.31 69.33 42.88a16.019 16.019 0 0 0 18.75-1.44l7.73-6.53c.08-.08.17-.15.27-.21 1-.65 2.62.14 2.62 1.42 0 .37-.12.71-.31.99-.08.12-.18.23-.3.33l-7.81 6.61a19.523 19.523 0 0 1-12.56 4.59z"></path><circle fill="#00e98d" cx="70.72" cy="192.78" r="6.79"></circle><circle fill="#00e98d" cx="88.54" cy="192.78" r="6.79"></circle><circle fill="#00e98d" cx="106.98" cy="192.78" r="6.79"></circle><path d="m150.37 427.85-3.37-.42c.72-5.77 5.57-22.25 5.78-22.95.1-.29 7.42-20.88 12.57-33.54l1.57-3.91c3.47-8.68 8.23-20.57 18.43-41.12l3.04 1.51c-10.13 20.43-14.86 32.24-18.32 40.87l-1.58 3.92c-5.12 12.58-12.41 33.1-12.49 33.3-.02.1-4.95 16.85-5.63 22.34z" fill="#0e0f0f"></path><path d="m57.15 349.14 8.83 3.82L57.15 366l-10.67-9.56" fill="#fff"></path><path d="M57.15 367.7c-.42 0-.82-.15-1.13-.43l-10.67-9.55c-.7-.62-.76-1.7-.13-2.4.62-.7 1.7-.76 2.4-.13l9.23 8.26 6.59-9.73-6.95-3.01a1.695 1.695 0 0 1 1.35-3.11l8.83 3.83a1.702 1.702 0 0 1 .73 2.51l-8.83 13.03c-.28.41-.71.67-1.2.73-.08-.01-.15 0-.22 0z"></path><path d="m384.04 526.72-17.77-16.28 16.34-17.61 14.03 11.72c5.86 4.85 5.28 9.44.95 13.11l-7.45 8.62a4.314 4.314 0 0 1-6.1.44z" fill="#fff"></path><path d="M386.86 529.47c-1.4 0-2.8-.48-3.94-1.46a.138.138 0 0 0-.04-.03l-17.77-16.28c-.33-.31-.53-.73-.55-1.18-.02-.45.14-.89.45-1.22l16.34-17.61c.61-.66 1.64-.73 2.33-.15l14.03 11.72c3.24 2.68 4.89 5.5 4.91 8.38.02 2.63-1.31 5.1-3.94 7.33l-7.26 8.43a6.039 6.039 0 0 1-4.56 2.07zm-1.7-4.02c1.1.93 2.75.81 3.69-.29l7.45-8.62c2.02-1.74 2.94-3.33 2.93-4.9-.01-1.83-1.25-3.77-3.68-5.79l-12.8-10.69-14.08 15.18 16.49 15.11z"></path><path d="M46.47 356.45v-33.69c2.95 0 5.62 1.49 7.55 3.89 1.93 2.41 3.12 5.73 3.12 9.4v13.1" fill="#fff"></path><path d="M46.47 358.14c-.94 0-1.7-.76-1.7-1.7v-33.69c0-.94.76-1.7 1.7-1.7 3.38 0 6.53 1.61 8.87 4.53 2.26 2.82 3.5 6.53 3.5 10.46v13.1c0 .94-.76 1.7-1.7 1.7s-1.7-.76-1.7-1.7v-13.1c0-3.16-.98-6.12-2.75-8.33-1.27-1.58-2.84-2.63-4.53-3.05v31.78c.01.94-.75 1.7-1.69 1.7z"></path><path d="M391.32 510.44c.92.76 5.79 4.64 6.35 5.78 2.13 4.33.36 9.58-3.98 11.72-3.23 1.59-6.97 1-9.55-1.19" fill="#fff"></path><path d="M389.82 530.53c-2.44 0-4.85-.85-6.79-2.49-.72-.61-.8-1.68-.2-2.39s1.68-.8 2.39-.2a7.085 7.085 0 0 0 7.71.96 6.964 6.964 0 0 0 3.56-4.06c.61-1.78.48-3.69-.35-5.38-.18-.29-1.17-1.36-5.44-4.84l-.47-.38c-.72-.6-.82-1.67-.23-2.39.6-.72 1.67-.82 2.39-.23l.45.37c4.14 3.37 5.85 4.99 6.34 5.97 1.23 2.5 1.42 5.33.52 7.97a10.37 10.37 0 0 1-5.28 6.01 10.22 10.22 0 0 1-4.6 1.08z"></path><path d="M438.97 550.47c1.24 3.63 3.56 6.78 6.66 9.03l1.6 1.16s-15.57-.95-19.34-9.17M302.75 314.72c.02-.01.03-.02.03-.02s0 .07.01.2v.03c.04.56.16 2.11.52 4.57 0 .03.01.06.01.09 1.78 11.7 9.06 43.66 38.67 87.98 18.99 28.41 33.79 47.15 43.81 58.75 9.89 11.47 15.13 15.96 15.13 15.96l-12.17 13.12-.04.05-1.57 1.68-17.54 18.91-8.33 8.97s-6.34-7.51-15.62-19.08c-10.9-13.61-25.89-32.82-39.41-52.05-9.92-14.11-23.33-37.92-29.08-51.9" fill="#00e98d"></path><path d="m361.22 527.58-1.24-1.47c-.06-.07-6.46-7.66-15.65-19.11-15.27-19.05-28.55-36.59-39.47-52.14-10.14-14.42-23.54-38.34-29.26-52.23l3.14-1.29c5.64 13.7 18.88 37.32 28.9 51.57 10.89 15.48 24.12 32.97 39.35 51.96 6.81 8.49 12.08 14.85 14.36 17.58l37.18-40.07c-2.14-2-6.85-6.66-14.01-14.95-9.21-10.66-24.31-29.54-43.94-58.91-29.76-44.53-37.15-76.84-38.94-88.66l-.03-.35c-.35-2.28-.47-3.87-.52-4.45l-.01-.36h1.65l-1.15-1.2 2.9-2.9v4.1c.05.66.17 2.17.51 4.57 1.77 11.68 9.04 43.41 38.42 87.37 19.54 29.23 34.54 47.99 43.68 58.58 9.67 11.2 14.9 15.73 14.95 15.78l1.34 1.15-42.16 45.43zM302.73 314.7l-.79-1.47.79 1.47z"></path><path d="M427.92 551.57c0-.02-.02-.05-.03-.07-.46-.86-.72-1.84-.72-2.88 0-3.34 2.71-6.04 6.04-6.04 3.35 0 6.05 2.71 6.05 6.04 0 .64-.1 1.27-.3 1.85" fill="#00e98d"></path><path d="M279.36 411.07a187.942 187.942 0 0 1-15.65-49.79l3.35-.56c2.82 16.94 7.99 33.39 15.36 48.89l-3.06 1.46z"></path><path d="M295 260.87c-.94 0-1.7-.76-1.7-1.7v-3.7c0-.94.76-1.7 1.7-1.7s1.7.76 1.7 1.7v3.7c0 .94-.76 1.7-1.7 1.7z" fill="#111413"></path><path d="m136.75 198.5-8.92-3.88v-2.15l8.92-3.86v2.53l-6.22 2.38 6.22 2.47v2.51zm5.88 1.71 3.22-13.46h1.87l-3.26 13.46h-1.83zm10.97-1.7V196l6.23-2.45-6.23-2.42v-2.49l8.93 3.86v2.13l-8.93 3.88z" fill="#fff"></path><path d="m518.53 603.2-11.23 5.73 3.9 4.89z" fill="#00e98d"></path><path d="m453.329 651.897 53.983-42.942 3.854 4.844-53.984 42.942z"></path><path d="m440.81 668.57 11.85-23.78 21.13-11.94a6.541 6.541 0 0 1-1.08 7.87l-10.88 10.8a21.258 21.258 0 0 1 3.75 22.5l-7.38 15.83-17.39-21.28z" fill="#fff"></path><path d="m458.6 693.02-19.8-24.22 12.57-25.23 23.06-13.03.84 1.48a8.253 8.253 0 0 1-1.36 9.91l-9.78 9.71c5.06 6.52 6.26 15.39 3.01 23.06l-8.54 18.32zm-15.78-24.67 14.98 18.34 6.24-13.38c2.93-6.9 1.57-15.03-3.47-20.65l-1.08-1.2 12.03-11.94a4.846 4.846 0 0 0 1.37-4.2l-18.93 10.7-11.14 22.33z"></path><path d="M432.84 937.09H47.05l192.9-334.12 95.45 165.29 20.92 36.28 40.05 69.35 1.31 2.26 18.3 31.7.49.88z" fill="#31205b"></path><path d="M416.47 908.73c-22.53 8.87-49.9 19.65-66.47 26.33-1.83.72-3.5 1.41-5.04 2.03-6.09 2.42-9.79 3.96-9.82 4.09-.2 0-2.26-1.54-5.47-4.09-.79-.62-1.64-1.31-2.52-2.03-3.11-2.55-6.97-5.73-11.1-9.2-12.7-10.74-28.13-24.46-34.18-31.89l21.55-33.89 7.79 6.88 26.65 23.64c2.36 2.1 5.63 2.68 8.61 1.64l49.9-18.34 1.31 2.26 18.3 31.7.49.87z" fill="#00e98d"></path><path d="M336.45 942.88h-1.32c-.67 0-.92 0-6.52-4.46-.79-.63-1.65-1.32-2.54-2.05-3.12-2.56-6.99-5.74-11.12-9.21-7.96-6.73-27.24-23.33-34.41-32.12l-.77-.95 23.27-36.6 35.94 31.83c1.86 1.65 4.51 2.15 6.92 1.31l51.22-18.82 21.78 37.8-6.3 2.48c-21.79 8.58-46.48 18.31-61.96 24.55-1.37.54-2.64 1.05-3.83 1.54l-1.21.49c-5.84 2.32-8.13 3.29-9.01 3.68l-.14.53zm-52.49-49.05c7.54 8.78 25.58 24.3 33.18 30.73 4.12 3.46 7.97 6.63 11.08 9.18.87.72 1.72 1.4 2.5 2.02 2.38 1.89 3.78 2.95 4.51 3.47 1.41-.66 4.04-1.71 9.1-3.72l1.2-.49c1.2-.49 2.48-1.01 3.85-1.54 15.47-6.24 40.18-15.97 61.97-24.55l2.69-1.06-18.42-31.89-48.56 17.84c-3.6 1.26-7.55.51-10.32-1.96l-32.95-29.2-19.83 31.17zM172.08 863.6c0-9.2 3.73-17.53 9.76-23.55 6.03-6.03 14.36-9.76 23.55-9.76 18.4 0 33.31 14.91 33.31 33.31 0 18.4-14.91 33.31-33.31 33.31S172.08 882 172.08 863.6z"></path><path d="M205.39 898.61c-19.3 0-35.01-15.7-35.01-35.01 0-9.35 3.64-18.14 10.25-24.75 6.61-6.61 15.4-10.25 24.75-10.25 19.3 0 35.01 15.7 35.01 35.01 0 19.29-15.7 35-35 35zm0-66.62c-8.44 0-16.38 3.29-22.35 9.26-5.97 5.97-9.26 13.91-9.26 22.35 0 17.43 14.18 31.61 31.61 31.61S237 881.03 237 863.6s-14.18-31.61-31.61-31.61z"></path><path d="M232 775.23c2.77-5.28 3.63 11.23 3.82 13.5 1.21 14.34-13.18 33.31-43.56 44.25-3.66 1.32 19.3 10.87 19.3 10.87l33.45-18.96 3.57-11.34-4.1-19.57"></path><path d="m211.68 845.73-.77-.32c-20.82-8.66-20.76-10.97-20.74-12.07.02-.9.59-1.63 1.52-1.96 30.7-11.05 43.52-29.78 42.44-42.51l-.07-.96c-.7-9.87-1.52-11.92-1.84-12.35.06.08.32.3.74.32.1.01.19 0 .27-.01l-2.74-1.43c.98-1.88 2.16-2.06 2.97-1.9 1.99.42 3.1 2.79 3.98 15.13l.07.91c1.2 14.16-11.6 33.5-42.78 45.29 2.97 1.92 10.15 5.32 16.72 8.08l32.14-18.22 3.24-10.28-4.01-19.13 3.32-.7 4.19 20-3.9 12.4-34.75 19.71z"></path><circle cx="293.29" cy="723.8" r="16.94"></circle><path d="M293.29 742.44c-10.27 0-18.63-8.36-18.63-18.63s8.36-18.63 18.63-18.63 18.63 8.36 18.63 18.63c.01 10.27-8.35 18.63-18.63 18.63zm0-33.87c-8.4 0-15.24 6.84-15.24 15.24s6.84 15.24 15.24 15.24 15.24-6.84 15.24-15.24-6.84-15.24-15.24-15.24z"></path><path d="M261.32 798.27v-40.79h20.54l2.66 29.29z" fill="#fff"></path><path d="M259.62 801v-45.21h23.79l2.9 31.99L259.62 801zm3.4-41.82v36.35l19.71-9.77-2.41-26.58h-17.3z"></path><path d="M227.27 826.84s8.84-11.6 8.84-34.34c0-6.41-5.31-32.87-5.31-32.87h35.37v48.64l-38.9 18.57z"></path><path d="m221.72 831.37 4.2-5.55c.09-.11 8.5-11.5 8.5-33.31 0-6.17-5.22-32.27-5.27-32.54l-.41-2.03h39.14v51.41l-46.16 22.02zm11.15-70.04c1.25 6.38 4.94 25.65 4.94 31.17 0 14.76-3.61 24.91-6.31 30.44l32.98-15.74v-45.87h-31.61z"></path><path d="M179.08 935.23s10.35-37.15 14.15-49.06c16.23-50.89 27.02-83.41 73.86-94.2h50.82s-7.07 61.67-7.07 86.3c0 24.76 7.07 56.96 7.07 56.96H179.08z" fill="#00e98d"></path><path d="M317.91 936.93H176.84l.6-2.15c.1-.37 10.4-37.32 14.16-49.12 16.18-50.72 26.86-84.23 75.1-95.34l.38-.04h52.73l-.22 1.89c-.07.61-7.06 61.85-7.06 86.11 0 24.28 6.97 56.27 7.03 56.59l.45 2.06h-2.1zm-136.6-3.4h134.51c-1.54-7.53-6.68-34.2-6.68-55.26 0-22.02 5.69-74.03 6.87-84.6h-48.73c-46.19 10.72-56.64 43.48-72.44 93.02-3.21 10.09-11.26 38.74-13.53 46.84z"></path><path d="M267.08 791.97s84.01-28.37 171.59-125.71c29.11 31.41 23.38 29.29 23.38 29.29S373.83 798.2 314.58 823.74" fill="#00e98d"></path><path d="m315.26 825.29-1.34-3.12c56.73-24.46 141.55-121.62 146.62-127.47-.97-1.82-5.01-7.7-21.85-25.94-86.44 95.47-170.22 124.52-171.06 124.81l-1.09-3.22c.84-.28 84.64-29.39 170.88-125.24l1.24-1.38 1.26 1.36c26.07 28.13 24.9 29.89 23.95 31.31-.24.35-.58.61-.97.75-6.83 7.86-90.86 103.66-147.64 128.14z"></path><circle cx="295.25" cy="723.8" r="16.94"></circle><path d="M295.25 742.44c-10.27 0-18.63-8.36-18.63-18.63s8.36-18.63 18.63-18.63 18.63 8.36 18.63 18.63c.01 10.27-8.35 18.63-18.63 18.63zm0-33.87c-8.4 0-15.24 6.84-15.24 15.24s6.84 15.24 15.24 15.24 15.24-6.84 15.24-15.24-6.83-15.24-15.24-15.24z"></path><circle fill="#fff" cx="281.86" cy="751.29" r="24.47"></circle><path d="M281.86 777.46c-14.43 0-26.17-11.74-26.17-26.17 0-14.43 11.74-26.17 26.17-26.17 14.43 0 26.17 11.74 26.17 26.17 0 14.43-11.74 26.17-26.17 26.17zm0-48.94c-12.56 0-22.77 10.22-22.77 22.77 0 12.56 10.22 22.77 22.77 22.77 12.56 0 22.77-10.22 22.77-22.77.01-12.56-10.21-22.77-22.77-22.77z"></path><circle cx="262.9" cy="723.8" r="24.2"></circle><path d="M262.9 749.7c-14.28 0-25.9-11.62-25.9-25.9s11.62-25.9 25.9-25.9 25.9 11.62 25.9 25.9c0 14.29-11.62 25.9-25.9 25.9zm0-48.4c-12.41 0-22.5 10.09-22.5 22.5s10.09 22.5 22.5 22.5 22.5-10.09 22.5-22.5c0-12.4-10.09-22.5-22.5-22.5z"></path><circle cx="241.89" cy="752.04" r="25.2"></circle><path d="M241.89 778.94c-14.83 0-26.9-12.07-26.9-26.9 0-14.83 12.07-26.9 26.9-26.9 14.83 0 26.9 12.07 26.9 26.9 0 14.83-12.07 26.9-26.9 26.9zm0-50.4c-12.96 0-23.51 10.54-23.51 23.5s10.54 23.51 23.51 23.51 23.51-10.54 23.51-23.51c-.01-12.96-10.55-23.5-23.51-23.5zm31.63 25.59c-.21-.2-1.28-1.28-1.33-3.52-.08-3.8 2.77-8.62 8.47-14.33l2.4 2.4c-8.06 8.06-7.92 12.13-7.18 13.02l-2.36 2.43z"></path><path d="M258.27 730.69 277.5 715l6.77 10.96c5.4 6.61 7.88 13.74 1 19.35l-11.43 9.78-15.57-24.4z"></path><circle fill="#fff" cx="266.49" cy="757.48" r="8.15"></circle><path d="M266.49 767.33c-5.43 0-9.84-4.42-9.84-9.84 0-5.43 4.41-9.84 9.84-9.84s9.84 4.42 9.84 9.84-4.41 9.84-9.84 9.84zm0-16.3c-3.55 0-6.45 2.89-6.45 6.45s2.89 6.45 6.45 6.45 6.45-2.89 6.45-6.45c0-3.55-2.89-6.45-6.45-6.45z"></path><path d="M298.32 749.07c-.61 0-1.2-.33-1.5-.9l-1.93-3.63c-.44-.83-.12-1.86.7-2.3a1.71 1.71 0 0 1 2.3.7l1.93 3.63c.44.83.12 1.86-.7 2.3-.26.14-.53.2-.8.2z" fill="#111413"></path></g></switch></svg>